<?xml version="1.0" encoding="UTF-8"?>
<!DOCTYPE svg PUBLIC "-//W3C//DTD SVG 1.1//EN" "http://www.w3.org/Graphics/SVG/1.1/DTD/svg11.dtd">
<!-- Creator: CorelDRAW X5 -->
<svg xmlns="http://www.w3.org/2000/svg" xml:space="preserve" width="249.245mm" height="145.752mm" style="shape-rendering:geometricPrecision; text-rendering:geometricPrecision; image-rendering:optimizeQuality; fill-rule:evenodd; clip-rule:evenodd" viewBox="0 0 27240 15929" xmlns:xlink="http://www.w3.org/1999/xlink">
 <defs>
  <style type="text/css">
   <![CDATA[
    .str2 {stroke:red;stroke-width:144.579}
    .str3 {stroke:#FF6600;stroke-width:144.579}
    .str0 {stroke:blue;stroke-width:86.7433;stroke-dasharray:86.743258 86.743258;stroke-opacity:0.501961}
    .str1 {stroke:#006633;stroke-width:86.7433;stroke-dasharray:86.743258 86.743258;stroke-opacity:0.501961}
    .fil3 {fill:none}
    .fil2 {fill:black;fill-rule:nonzero}
    .fil8 {fill:blue;fill-rule:nonzero}
    .fil6 {fill:#006633;fill-rule:nonzero}
    .fil5 {fill:red;fill-rule:nonzero}
    .fil7 {fill:#FF6600;fill-rule:nonzero}
    .fil4 {fill:#5A3E60;fill-rule:nonzero}
    .fil1 {fill:#99FF99;fill-opacity:0.501961}
    .fil0 {fill:#CCFFFF;fill-opacity:0.501961}
   ]]>
  </style>
 </defs>
 <g id="Layer_x0020_1">
  <metadata id="CorelCorpID_0Corel-Layer"/>
  <path class="fil0 str0" d="M5366 3982l998 0c243,0 443,199 443,443l0 2100c0,243 -199,443 -443,443l-998 0c-243,0 -443,-199 -443,-443l0 -2100c0,-243 199,-443 443,-443z"/>
  <path class="fil1 str1" d="M11937 4879l1311 0c320,0 581,262 581,581l0 3241c0,320 -262,581 -581,581l-1311 0c-320,0 -581,-262 -581,-581l0 -3241c0,-320 262,-581 581,-581z"/>
  <path class="fil1 str1" d="M625 4756l1311 0c320,0 581,262 581,581l0 3241c0,320 -262,581 -581,581l-1311 0c-320,0 -581,-262 -581,-581l0 -3241c0,-320 262,-581 581,-581z"/>
  <path class="fil2" d="M596 6055c93,-221 212,-392 354,-511 143,-121 321,-181 534,-181 263,0 464,86 605,257 107,127 160,264 160,409 0,239 -150,486 -450,740 202,79 354,193 457,340 103,146 155,319 155,518 0,283 -90,530 -271,738 -236,271 -577,407 -1024,407 -221,0 -372,-27 -452,-82 -79,-55 -120,-114 -120,-177 0,-47 19,-88 57,-124 38,-36 83,-53 137,-53 40,0 81,7 123,19 27,8 89,38 187,88 97,51 164,81 201,91 59,18 123,26 191,26 164,0 308,-64 430,-191 122,-127 183,-278 183,-453 0,-127 -28,-252 -84,-373 -42,-90 -88,-159 -138,-206 -69,-64 -164,-123 -286,-175 -121,-53 -245,-79 -370,-79l-78 0 0 -73c127,-16 255,-62 383,-138 129,-75 222,-167 280,-274 58,-107 87,-223 87,-350 0,-167 -52,-301 -156,-403 -104,-102 -233,-154 -388,-154 -250,0 -459,134 -627,402l-79 -39z"/>
  <polygon id="1" class="fil2" points="10202,7164 7591,7164 7591,6966 10202,6966 "/>
  <path id="12" class="fil2" d="M13811 8081l-230 632 -1937 0 0 -89c569,-520 971,-944 1203,-1273 232,-330 349,-630 349,-903 0,-208 -64,-379 -192,-513 -127,-134 -279,-201 -457,-201 -162,0 -307,47 -435,141 -128,94 -223,233 -284,415l-90 0c40,-298 144,-527 312,-687 167,-159 375,-240 626,-240 266,0 488,86 667,257 178,171 268,373 268,605 0,166 -39,333 -117,499 -119,261 -313,538 -581,830 -402,439 -653,703 -753,794l857 0c174,0 297,-7 367,-20 70,-12 134,-39 190,-79 56,-40 106,-96 148,-169l89 0z"/>
  <polygon id="123" class="fil2" points="20952,8372 20952,7164 19747,7164 19747,6966 20952,6966 20952,5762 21146,5762 21146,6966 22357,6966 22357,7164 21146,7164 21146,8372 "/>
  <path id="1234" class="fil2" d="M3682 6523c79,83 139,168 179,251 29,59 77,211 143,458l213 -320c56,-77 125,-151 206,-221 80,-70 151,-118 212,-144 39,-17 82,-24 129,-24 69,0 124,18 165,55 41,37 62,83 62,136 0,61 -12,103 -36,126 -45,40 -97,61 -155,61 -34,0 -70,-7 -109,-22 -76,-26 -127,-39 -153,-39 -39,0 -84,23 -138,68 -100,84 -219,246 -358,487l198 833c31,127 56,204 78,229 21,25 41,37 63,37 34,0 74,-18 118,-55 89,-74 164,-171 228,-291l84 44c-102,191 -231,349 -388,474 -88,71 -164,107 -225,107 -90,0 -162,-50 -216,-152 -34,-63 -104,-335 -211,-814 -251,438 -453,719 -605,845 -98,80 -193,121 -286,121 -64,0 -123,-23 -177,-70 -38,-36 -58,-83 -58,-143 0,-53 18,-98 54,-133 35,-36 79,-53 131,-53 51,0 107,26 164,78 42,37 74,55 97,55 20,0 45,-13 75,-39 76,-61 179,-193 310,-397 131,-203 217,-350 257,-441 -101,-392 -155,-599 -163,-621 -37,-105 -85,-179 -145,-223 -59,-44 -147,-65 -264,-65 -37,0 -80,2 -128,5l0 -88 646 -113z"/>
  <path id="12345" class="fil2" d="M14876 6523c79,83 139,168 179,251 29,59 77,211 143,458l213 -320c56,-77 125,-151 206,-221 80,-70 151,-118 212,-144 39,-17 82,-24 129,-24 69,0 124,18 165,55 41,37 62,83 62,136 0,61 -12,103 -36,126 -45,40 -97,61 -155,61 -34,0 -70,-7 -109,-22 -76,-26 -127,-39 -153,-39 -39,0 -84,23 -138,68 -100,84 -219,246 -358,487l198 833c31,127 56,204 78,229 21,25 41,37 63,37 34,0 74,-18 118,-55 89,-74 164,-171 228,-291l84 44c-102,191 -231,349 -388,474 -88,71 -164,107 -225,107 -90,0 -162,-50 -216,-152 -34,-63 -104,-335 -211,-814 -251,438 -453,719 -605,845 -98,80 -193,121 -286,121 -64,0 -123,-23 -177,-70 -38,-36 -58,-83 -58,-143 0,-53 18,-98 54,-133 35,-36 79,-53 131,-53 51,0 107,26 164,78 42,37 74,55 97,55 20,0 45,-13 75,-39 76,-61 179,-193 310,-397 131,-203 217,-350 257,-441 -101,-392 -155,-599 -163,-621 -37,-105 -85,-179 -145,-223 -59,-44 -147,-65 -264,-65 -37,0 -80,2 -128,5l0 -88 646 -113z"/>
  <path id="123456" class="fil2" d="M17009 6523c55,93 93,181 114,262 21,82 41,242 63,481l107 1191c97,-116 237,-300 421,-552 88,-122 198,-289 329,-501 79,-129 127,-220 145,-271 9,-26 14,-53 14,-80 0,-17 -5,-32 -17,-44 -12,-11 -40,-24 -88,-40 -48,-15 -88,-44 -119,-84 -31,-41 -47,-88 -47,-142 0,-66 20,-119 59,-159 38,-40 87,-60 145,-60 71,0 131,29 182,88 50,59 75,140 75,243 0,127 -44,274 -131,437 -88,164 -255,415 -504,754 -248,340 -550,709 -902,1109 -244,276 -425,450 -543,522 -117,71 -218,107 -302,107 -50,0 -94,-19 -132,-57 -38,-38 -56,-82 -56,-132 0,-63 26,-120 79,-172 52,-51 109,-77 170,-77 32,0 59,7 80,21 13,8 27,31 42,69 16,37 30,63 43,76 7,8 17,12 29,12 9,0 26,-7 50,-24 89,-55 193,-142 310,-261 155,-159 269,-288 344,-388l-136 -1534c-22,-254 -56,-408 -102,-463 -45,-55 -121,-83 -227,-83 -34,0 -95,5 -182,15l-21 -89 709 -174z"/>
  <path id="1234567" class="fil2" d="M25608 8185c-168,202 -337,350 -508,445 -171,94 -352,141 -542,141 -229,0 -408,-64 -536,-193 -128,-129 -193,-302 -193,-521 0,-247 69,-490 207,-729 138,-239 323,-433 556,-582 234,-150 462,-224 687,-224 176,0 307,36 394,110 88,74 131,164 131,270 0,100 -31,185 -93,256 -45,55 -101,83 -167,83 -50,0 -92,-17 -125,-49 -33,-32 -50,-73 -50,-121 0,-31 7,-59 18,-85 12,-26 37,-57 75,-93 38,-36 61,-62 69,-78 7,-16 12,-33 12,-50 0,-34 -15,-63 -45,-85 -47,-32 -113,-49 -199,-49 -158,0 -315,56 -469,168 -155,111 -288,269 -397,474 -132,249 -198,497 -198,745 0,164 47,295 140,391 93,97 221,145 383,145 124,0 247,-31 369,-93 121,-62 259,-175 410,-338l70 63z"/>
  <path class="fil2" d="M6497 6277l0 246 -1378 0c-2,-62 8,-121 30,-178 35,-94 91,-186 168,-278 78,-91 189,-196 335,-316 227,-186 380,-333 460,-442 80,-108 119,-211 119,-308 0,-101 -36,-187 -109,-257 -73,-69 -167,-104 -284,-104 -123,0 -222,37 -296,111 -74,74 -112,176 -113,307l-263 -27c18,-197 86,-346 203,-449 117,-103 276,-154 474,-154 200,0 358,56 475,166 117,111 175,249 175,413 0,83 -17,166 -51,246 -34,81 -91,166 -170,254 -79,89 -211,212 -395,367 -153,129 -252,216 -296,263 -44,46 -80,92 -108,138l1023 0z"/>
  <polyline class="fil3 str2" points="433,10451 433,12014 6593,12014 6593,10458 "/>
  <polyline class="fil3 str2" points="11244,10451 11244,12014 18642,12014 18642,10458 "/>
  <polyline class="fil3 str3" points="23061,10451 23061,12014 27168,12014 27168,10458 "/>
  <g>
   <path class="fil4" d="M9170 10012l-756 0 378 -687 378 687zm-450 3615l0 -3675 145 0 0 3675 -145 0z"/>
  </g>
  <g>
   <path class="fil4" d="M21397 10012l-756 0 378 -687 378 687zm-450 3601l0 -3661 145 0 0 3661 -145 0z"/>
  </g>
  <path class="fil5" d="M3018 13118l-495 -89c41,-158 120,-279 238,-363 117,-84 283,-126 497,-126 246,0 424,46 534,137 110,92 165,207 165,346 0,82 -22,155 -67,221 -45,66 -112,124 -202,174 73,18 129,39 167,63 62,39 111,90 146,153 35,63 52,138 52,226 0,110 -29,215 -86,316 -58,101 -141,178 -249,233 -108,54 -250,82 -426,82 -171,0 -306,-20 -406,-60 -99,-40 -180,-100 -245,-177 -64,-78 -113,-175 -147,-293l523 -69c21,105 53,179 96,220 43,40 98,61 165,61 70,0 129,-26 176,-77 47,-51 70,-120 70,-206 0,-87 -23,-155 -68,-203 -45,-48 -106,-72 -184,-72 -41,0 -97,11 -169,31l27 -374c29,4 52,7 68,7 69,0 126,-22 172,-66 46,-43 68,-96 68,-155 0,-58 -17,-104 -51,-138 -34,-34 -81,-51 -141,-51 -62,0 -112,19 -151,56 -39,37 -65,103 -79,196z"/>
  <path class="fil4" d="M8585 15577l-955 0 0 -431 955 -1135 457 0 0 1159 237 0 0 407 -237 0 0 353 -457 0 0 -353zm0 -407l0 -593 -505 593 505 0z"/>
  <path class="fil4" d="M20941 15577l-955 0 0 -431 955 -1135 457 0 0 1159 237 0 0 407 -237 0 0 353 -457 0 0 -353zm0 -407l0 -593 -505 593 505 0z"/>
  <path class="fil6" d="M2051 2515l-1572 0c18,-155 73,-301 164,-438 91,-137 263,-298 514,-484 154,-114 252,-201 295,-259 43,-59 65,-115 65,-169 0,-58 -22,-107 -64,-148 -43,-40 -96,-61 -160,-61 -67,0 -122,21 -164,63 -42,42 -71,116 -86,223l-525 -43c21,-148 58,-263 113,-346 55,-83 132,-146 232,-190 100,-44 238,-66 415,-66 184,0 328,21 430,63 102,42 183,107 241,194 59,87 88,185 88,293 0,115 -34,225 -101,329 -67,105 -190,220 -367,345 -106,73 -176,124 -212,153 -36,29 -78,67 -126,114l818 0 0 427z"/>
  <path class="fil6" d="M13386 2790l-1572 0c18,-155 73,-301 164,-438 91,-137 263,-298 514,-484 154,-114 252,-201 295,-259 43,-59 65,-115 65,-169 0,-58 -22,-107 -64,-148 -43,-40 -96,-61 -160,-61 -67,0 -122,21 -164,63 -42,42 -71,116 -86,223l-525 -43c21,-148 58,-263 113,-346 55,-83 132,-146 232,-190 100,-44 238,-66 415,-66 184,0 328,21 430,63 102,42 183,107 241,194 59,87 88,185 88,293 0,115 -34,225 -101,329 -67,105 -190,220 -367,345 -106,73 -176,124 -212,153 -36,29 -78,67 -126,114l818 0 0 427z"/>
  <path class="fil5" d="M14751 13118l-495 -89c41,-158 120,-279 238,-363 117,-84 283,-126 497,-126 246,0 424,46 534,137 110,92 165,207 165,346 0,82 -22,155 -67,221 -45,66 -112,124 -202,174 73,18 129,39 167,63 62,39 111,90 146,153 35,63 52,138 52,226 0,110 -29,215 -86,316 -58,101 -141,178 -249,233 -108,54 -250,82 -426,82 -171,0 -306,-20 -406,-60 -99,-40 -180,-100 -245,-177 -64,-78 -113,-175 -147,-293l523 -69c21,105 53,179 96,220 43,40 98,61 165,61 70,0 129,-26 176,-77 47,-51 70,-120 70,-206 0,-87 -23,-155 -68,-203 -45,-48 -106,-72 -184,-72 -41,0 -97,11 -169,31l27 -374c29,4 52,7 68,7 69,0 126,-22 172,-66 46,-43 68,-96 68,-155 0,-58 -17,-104 -51,-138 -34,-34 -81,-51 -141,-51 -62,0 -112,19 -151,56 -39,37 -65,103 -79,196z"/>
  <path class="fil7" d="M25031 12573l1244 0 0 418 -843 0 -45 283c58,-28 116,-48 173,-62 57,-14 113,-21 169,-21 189,0 342,57 459,171 118,114 177,258 177,431 0,122 -30,239 -91,351 -61,112 -146,198 -257,257 -111,59 -253,89 -426,89 -124,0 -231,-12 -320,-35 -89,-24 -164,-59 -227,-106 -62,-47 -112,-100 -151,-159 -39,-59 -71,-133 -97,-221l530 -58c13,85 43,149 90,194 47,44 104,66 169,66 73,0 133,-28 181,-83 47,-55 71,-138 71,-248 0,-112 -24,-195 -72,-247 -48,-52 -112,-78 -191,-78 -50,0 -100,12 -147,37 -35,18 -74,51 -116,98l-446 -64 166 -1014z"/>
  <path class="fil8" d="M6013 0l0 1918 -530 0 0 -1257c-86,65 -169,118 -249,158 -80,40 -180,79 -302,116l0 -430c179,-58 317,-126 416,-207 98,-81 176,-180 231,-299l433 0z"/>
  <g>
   <path class="fil6" d="M1185 3803l0 -1090 145 0 0 1090 -145 0zm450 -60l-378 687 -378 -687 756 0z"/>
  </g>
  <g>
   <path class="fil6" d="M12520 4077l0 -1090 145 0 0 1090 -145 0zm450 -60l-378 687 -378 -687 756 0z"/>
  </g>
  <g>
   <path class="fil8" d="M5664 3031l0 -915 145 0 0 915 -145 0zm450 -60l-378 687 -378 -687 756 0z"/>
  </g>
 </g>
</svg>